<?xml version="1.0" encoding="UTF-8"?><svg id="b" xmlns="http://www.w3.org/2000/svg" viewBox="0 0 24 23.4"><defs><style>.d{fill:#3c3c3c;}</style></defs><g id="c"><path class="d" d="M8.64,10.46c-.1-.31-.19-.61-.29-.92-.1-.31-.19-.6-.27-.89-.08-.28-.15-.54-.22-.78h-.02c-.09.43-.2.86-.34,1.29-.15.48-.3.98-.46,1.48-.13.51-.28.97-.43,1.39h2.54c-.06-.21-.14-.46-.23-.72-.09-.27-.18-.56-.27-.86Z"/><path class="d" d="M19.75,0H4.25C1.9,0,0,1.9,0,4.25v14.9c0,2.35,1.9,4.25,4.25,4.25h15.5c2.35,0,4.25-1.9,4.25-4.25V4.25c0-2.35-1.9-4.25-4.25-4.25ZM12.8,16.5h-2.09c-.07,0-.14-.04-.16-.11l-.82-2.38v.03h-3.71l-.76,2.35c-.02.09-.1.15-.19.14h-1.91c-.11,0-.14-.06-.11-.18l3.23-9.23c.03-.1.06-.18.1-.31.04-.21.06-.43.06-.65,0-.05.03-.1.08-.11h2.6c.08,0,.12.03.13.08l3.64,10.2c.03.11,0,.16-.1.16ZM21.02,16.39c0,.1-.04.14-.13.14l-1.88.02c-.08,0-.15-.04-.16-.12v-4.52c0-.3-.07-.6-.19-.87-.09-.2-.23-.38-.41-.5-.21-.13-.44-.19-.68-.18-.26,0-.52.04-.76.14-.22.09-.42.22-.6.38v5.52c0,.1-.04.14-.13.14h-1.9c-.07,0-.13-.04-.14-.11,0-.04,0-.05,0-.06v-5.94c0-.18,0-.39,0-.61,0-.23,0-.44-.02-.64,0-.2-.02-.39-.03-.51,0-.03,0-.07.02-.1.03-.02.06-.03.1-.03h1.61c.06,0,.11,0,.16.03.04.02.07.06.08.11s.05.14.07.22c.03.11.05.22.06.33.31-.27.67-.48,1.06-.62.39-.13.8-.2,1.21-.2.32,0,.64.05.94.15.71.23,1.27.78,1.52,1.48.16.41.22.95.22,1.6v4.73Z"/></g></svg>