<?xml version="1.0" standalone="no"?>
<!DOCTYPE svg PUBLIC "-//W3C//DTD SVG 20010904//EN"
 "http://www.w3.org/TR/2001/REC-SVG-20010904/DTD/svg10.dtd">
<svg version="1.0" xmlns="http://www.w3.org/2000/svg"
 width="209.000000pt" height="209.000000pt" viewBox="0 0 209.000000 209.000000"
 preserveAspectRatio="xMidYMid meet">
<metadata>
Created by potrace 1.14, written by Peter Selinger 2001-2017
</metadata>
<g transform="translate(0.000000,209.000000) scale(0.100000,-0.100000)"
fill="#000000" stroke="none">
<path d="M998 1720 c-30 -52 -107 -186 -172 -297 l-117 -203 37 -67 c20 -37
65 -115 99 -173 34 -58 94 -161 134 -230 l73 -126 339 1 c287 0 340 2 352 15
12 12 281 474 326 558 10 19 9 28 -7 55 -11 18 -29 48 -39 67 -61 108 -276
476 -283 484 -6 6 -155 10 -349 10 l-340 1 -53 -95z m625 -111 c18 -23 220
-385 220 -393 0 -6 -18 -42 -41 -80 -23 -37 -42 -69 -42 -71 0 -1 -31 -56 -70
-121 l-70 -119 -225 0 -226 0 -21 35 c-11 19 -31 54 -44 77 -13 23 -54 93 -90
155 -37 62 -67 118 -67 124 0 13 176 325 208 369 l22 30 222 -1 c122 -1 223
-3 224 -5z"/>
<path d="M85 1060 c-12 -19 -35 -59 -51 -87 l-29 -53 29 -52 c16 -29 40 -70
53 -90 l23 -38 101 3 100 2 51 88 51 87 -51 87 -51 88 -102 0 -101 1 -23 -36z
m188 -41 c2 -2 15 -25 30 -51 l27 -46 -31 -55 -32 -54 -54 0 c-61 0 -79 12
-108 77 -17 38 -17 39 4 68 11 17 21 35 21 41 0 7 10 15 21 20 22 8 116 8 122
0z"/>
<path d="M447 885 c-5 -5 -46 -75 -92 -155 l-84 -145 36 -65 c19 -36 60 -106
89 -157 l55 -92 181 2 181 2 89 154 89 153 -91 157 -91 156 -176 0 c-106 0
-180 -4 -186 -10z m321 -220 c23 -41 42 -79 42 -84 0 -5 -19 -42 -43 -83 l-44
-73 -93 0 -93 0 -38 62 c-55 92 -55 92 -7 177 48 84 46 83 158 78 l75 -3 43
-74z"/>
</g>
</svg>
