<svg width="32" height="32" viewBox="0 0 32 32" fill="none" xmlns="http://www.w3.org/2000/svg">
<g clip-path="url(#clip0_18_5910)">
<path d="M16 1.45508e-05C7.16267 1.45508e-05 0 7.16401 0 16C0 24.8373 7.16267 32 16 32C24.836 32 32 24.8373 32 16C32.0009 14.4919 31.7886 12.9913 31.3693 11.5427C31.2908 11.3519 31.1416 11.1989 30.9529 11.1155C30.7642 11.0321 30.5506 11.0249 30.3567 11.0952C30.1627 11.1656 30.0035 11.3082 29.9122 11.4932C29.8209 11.6782 29.8046 11.8913 29.8667 12.088H29.864C30.2173 13.3453 30.4 14.6587 30.4 16C30.4052 17.8918 30.0351 19.7659 29.3112 21.5138C28.5873 23.2616 27.524 24.8485 26.1827 26.1827C24.8485 27.524 23.2616 28.5874 21.5137 29.3113C19.7659 30.0352 17.8918 30.4052 16 30.4C14.1082 30.4052 12.2341 30.0352 10.4863 29.3113C8.7384 28.5874 7.15148 27.524 5.81733 26.1827C4.47604 24.8485 3.41267 23.2616 2.68876 21.5138C1.96486 19.7659 1.5948 17.8918 1.6 16C1.5948 14.1082 1.96486 12.2341 2.68876 10.4863C3.41267 8.73842 4.47604 7.1515 5.81733 5.81735C7.15148 4.47605 8.7384 3.41268 10.4863 2.68878C12.2341 1.96487 14.1082 1.59481 16 1.60001C19.4347 1.60001 22.684 2.79468 25.2773 4.98668C25.1134 5.4027 25.0971 5.86233 25.2311 6.28892C25.3651 6.71551 25.6413 7.08327 26.0136 7.33086C26.3859 7.57845 26.8319 7.6909 27.2771 7.64945C27.7223 7.608 28.1399 7.41517 28.4601 7.10311C28.7804 6.79104 28.9839 6.37862 29.0369 5.93463C29.0898 5.49063 28.9889 5.04191 28.751 4.6633C28.5132 4.28469 28.1527 3.99908 27.7297 3.85412C27.3067 3.70915 26.8468 3.71358 26.4267 3.86668C23.5283 1.36739 19.8271 -0.00515519 16 1.45508e-05ZM14.08 7.84001L8.48 22.376H11.9867L12.9027 19.912H18.1947L17.236 17.1893H13.752L16.0187 10.9347L20.0507 22.3747H23.5587L17.96 7.84001H14.08Z" fill="#3c3c3c"/>
</g>
<defs>
<clipPath id="clip0_18_5910">
<rect width="32" height="32" fill="white"/>
</clipPath>
</defs>
</svg>
