<svg width="32" height="32" viewBox="0 0 32 32" fill="none" xmlns="http://www.w3.org/2000/svg">
<g clip-path="url(#clip0_18_5902)">
<path d="M22.012 22.46C22.208 21.784 22.132 21.1653 21.8053 20.7053C21.5053 20.284 20.9987 20.04 20.3893 20.012L8.84267 19.8613C8.80773 19.8614 8.77328 19.853 8.74236 19.8367C8.71144 19.8205 8.68499 19.7969 8.66533 19.768C8.64706 19.7369 8.63528 19.7024 8.6307 19.6667C8.62611 19.6309 8.62883 19.5946 8.63867 19.56C8.65955 19.5033 8.69605 19.4537 8.74395 19.4169C8.79185 19.38 8.84919 19.3575 8.90934 19.352L20.5573 19.2013C21.9373 19.136 23.4373 18.02 23.9627 16.6506L24.628 14.9146C24.658 14.8439 24.6645 14.7654 24.6467 14.6906C24.2843 13.0773 23.4046 11.6266 22.1416 10.5593C20.8786 9.49209 19.3014 8.86679 17.6502 8.77862C15.999 8.69045 14.3643 9.14425 12.9948 10.0709C11.6253 10.9976 10.5962 12.3464 10.064 13.912C9.37711 13.4006 8.52419 13.1639 7.672 13.248C7.18339 13.2974 6.71119 13.4516 6.28764 13.7002C5.86409 13.9488 5.49917 14.2858 5.2178 14.6883C4.93642 15.0908 4.74522 15.5493 4.65724 16.0325C4.56925 16.5156 4.58657 17.0121 4.708 17.488C3.44666 17.5237 2.24903 18.0501 1.36981 18.9553C0.490587 19.8604 -0.000853069 21.0728 1.11164e-06 22.3346C0.00177889 22.5693 0.0173344 22.8035 0.0466678 23.0373C0.0548907 23.0917 0.0822056 23.1415 0.12373 23.1776C0.165255 23.2138 0.218282 23.234 0.273334 23.2346H21.58C21.6412 23.2329 21.7004 23.212 21.7492 23.175C21.798 23.1379 21.8339 23.0865 21.852 23.028L22.012 22.46ZM25.688 15.0413C25.5853 15.0413 25.4733 15.0413 25.3693 15.056C25.2947 15.056 25.2293 15.112 25.2 15.1866L24.7507 16.752C24.5533 17.428 24.628 18.0466 24.956 18.508C25.256 18.9293 25.7627 19.172 26.372 19.2013L28.8307 19.352C28.9053 19.352 28.9707 19.3866 29.008 19.4453C29.0265 19.4763 29.0385 19.5107 29.0433 19.5464C29.0481 19.5822 29.0456 19.6185 29.036 19.6533C29.015 19.7102 28.9783 19.7599 28.9302 19.7967C28.882 19.8336 28.8244 19.8559 28.764 19.8613L26.204 20.0106C24.8147 20.076 23.3253 21.1933 22.8 22.5626L22.612 23.04C22.5747 23.136 22.64 23.2293 22.744 23.2293H31.54C31.591 23.2301 31.6408 23.2141 31.6818 23.1837C31.7228 23.1533 31.7526 23.1103 31.7667 23.0613C31.9179 22.5049 31.9964 21.9312 32 21.3546C31.9954 19.6829 31.3286 18.081 30.1456 16.8997C28.9626 15.7185 27.3598 15.0541 25.688 15.052" fill="#3c3c3c"/>
</g>
<defs>
<clipPath id="clip0_18_5902">
<rect width="32" height="32" fill="white"/>
</clipPath>
</defs>
</svg>
