<svg width="32" height="32" viewBox="0 0 32 32" fill="none" xmlns="http://www.w3.org/2000/svg">
<g clip-path="url(#clip0_18_5904)">
<path d="M16.0147 1.94393e-06C15.65 -0.000499699 15.2919 0.0960959 14.977 0.279861C14.662 0.463627 14.4017 0.727933 14.2228 1.04562C14.0438 1.3633 13.9527 1.7229 13.9588 2.08747C13.9649 2.45203 14.0679 2.80841 14.2573 3.11997C14.4467 3.43153 14.7156 3.68703 15.0365 3.86023C15.3573 4.03342 15.7185 4.11806 16.0829 4.10544C16.4473 4.09281 16.8018 3.98339 17.1099 3.78841C17.418 3.59343 17.6686 3.31992 17.836 2.996C20.7973 4.68534 22.9653 10.292 22.9653 16.812C22.9653 19.5733 22.58 22.22 21.8653 24.5027C21.8482 24.5564 21.8419 24.613 21.8468 24.6692C21.8517 24.7254 21.8677 24.7801 21.8939 24.83C21.9201 24.88 21.9559 24.9243 21.9993 24.9603C22.0426 24.9964 22.0927 25.0235 22.1467 25.04C22.2003 25.0571 22.2568 25.0635 22.313 25.0587C22.3691 25.0539 22.4237 25.038 22.4737 25.0119C22.5236 24.9859 22.5679 24.9503 22.604 24.907C22.6401 24.8638 22.6673 24.8138 22.684 24.76C23.4253 22.3907 23.824 19.6587 23.824 16.812C23.824 9.888 21.4613 3.89734 18.0627 2.14134L18.0667 2.052C18.0663 1.50789 17.85 0.986157 17.4653 0.601409C17.0805 0.216661 16.5588 0.000355151 16.0147 1.94393e-06ZM16.0147 0.857335C16.3315 0.857335 16.6354 0.983202 16.8594 1.20725C17.0835 1.43129 17.2093 1.73516 17.2093 2.052C17.2093 2.36885 17.0835 2.67272 16.8594 2.89676C16.6354 3.1208 16.3315 3.24667 16.0147 3.24667C15.6978 3.24667 15.3939 3.1208 15.1699 2.89676C14.9459 2.67272 14.82 2.36885 14.82 2.052C14.82 1.73516 14.9459 1.43129 15.1699 1.20725C15.3939 0.983202 15.6978 0.857335 16.0147 0.857335ZM8.7 6.59734C5.944 6.608 3.83733 7.484 2.84933 9.196C1.86533 10.8987 2.14666 13.156 3.52933 15.5707C3.58591 15.6695 3.67943 15.7418 3.78933 15.7717C3.89923 15.8016 4.01649 15.7866 4.11533 15.73C4.21417 15.6734 4.28648 15.5799 4.31636 15.47C4.34624 15.3601 4.33124 15.2428 4.27466 15.144C3.028 12.9707 2.78533 11.0213 3.592 9.624C4.68533 7.728 7.636 7.01734 11.5013 7.72134C11.6109 7.73624 11.722 7.7083 11.8114 7.64335C11.9009 7.5784 11.9618 7.48144 11.9816 7.37266C12.0014 7.26389 11.9784 7.15168 11.9175 7.05941C11.8566 6.96714 11.7625 6.90192 11.6547 6.87734C10.6806 6.69266 9.69143 6.59892 8.7 6.59734ZM23.436 6.62134C23.3263 6.62594 23.2225 6.67241 23.146 6.75121C23.0694 6.83001 23.026 6.93513 23.0247 7.04495C23.0233 7.15477 23.0641 7.26094 23.1386 7.34162C23.2131 7.42229 23.3157 7.47134 23.4253 7.47867C25.8707 7.51067 27.6333 8.27334 28.4253 9.64667C29.5187 11.5387 28.6653 14.4387 26.1347 17.4293C26.0981 17.4722 26.0704 17.5219 26.0531 17.5756C26.0359 17.6292 26.0294 17.6857 26.0341 17.7419C26.0388 17.7981 26.0546 17.8527 26.0806 17.9027C26.1065 17.9528 26.1421 17.9972 26.1853 18.0333C26.2281 18.07 26.2778 18.0978 26.3313 18.1152C26.3849 18.1325 26.4415 18.1391 26.4976 18.1345C26.5538 18.1299 26.6085 18.1143 26.6585 18.0884C26.7086 18.0626 26.753 18.0271 26.7893 17.984C29.5267 14.7493 30.4827 11.496 29.168 9.21734C28.2013 7.54134 26.1547 6.65734 23.436 6.62134ZM19.8387 7.01067C19.8095 7.01105 19.7804 7.01463 19.752 7.02134C17.276 7.552 14.6413 8.588 12.1107 10.0493C6.01733 13.5667 1.98666 18.7093 2.29733 22.5453C1.89922 22.7654 1.58559 23.1116 1.4058 23.5295C1.22601 23.9474 1.19026 24.4131 1.30417 24.8535C1.41809 25.2939 1.67521 25.684 2.03507 25.9622C2.39493 26.2405 2.8371 26.3912 3.292 26.3907C3.82342 26.3715 4.32668 26.1469 4.69586 25.7642C5.06504 25.3815 5.27134 24.8704 5.27134 24.3387C5.27134 23.8069 5.06504 23.2959 4.69586 22.9131C4.32668 22.5304 3.82342 22.3058 3.292 22.2867C3.24222 22.2867 3.192 22.2893 3.14133 22.2947C3.008 18.8813 6.8 14.1053 12.5387 10.792C14.9947 9.37467 17.5467 8.37067 19.932 7.85867C20.0348 7.83532 20.1254 7.77495 20.1866 7.68908C20.2478 7.6032 20.2752 7.49783 20.2637 7.39303C20.2521 7.28823 20.2024 7.19134 20.1241 7.12083C20.0457 7.05031 19.9441 7.0111 19.8387 7.01067ZM16 15.3267C15.8995 15.3265 15.7993 15.3377 15.7013 15.36C15.329 15.4403 15.0017 15.6606 14.7872 15.9754C14.5727 16.2902 14.4873 16.6753 14.5486 17.0512C14.61 17.4272 14.8135 17.7652 15.1169 17.9954C15.4204 18.2255 15.8008 18.3303 16.1793 18.2881C16.5579 18.2458 16.9057 18.0598 17.151 17.7683C17.3963 17.4769 17.5202 17.1024 17.4972 16.7222C17.4742 16.3419 17.3059 15.9851 17.0273 15.7254C16.7487 15.4657 16.3809 15.3229 16 15.3267ZM6.04266 17.7867C5.98626 17.7839 5.92987 17.7924 5.87677 17.8117C5.82367 17.8309 5.77491 17.8605 5.73333 17.8987C5.69153 17.9364 5.65763 17.9821 5.63358 18.0331C5.60953 18.084 5.5958 18.1392 5.5932 18.1955C5.5906 18.2518 5.59916 18.308 5.61841 18.361C5.63766 18.4139 5.6672 18.4625 5.70533 18.504C7.396 20.3613 9.59333 22.104 12.0973 23.5507C17.984 26.9507 24.2387 27.9307 27.512 26.004C27.86 26.2556 28.2786 26.3909 28.708 26.3907C29.1594 26.3912 29.5984 26.2431 29.9571 25.969C30.3158 25.695 30.5742 25.3104 30.6924 24.8748C30.8105 24.4391 30.7818 23.9766 30.6107 23.5589C30.4396 23.1412 30.1356 22.7916 29.7457 22.564C29.3559 22.3364 28.9019 22.2437 28.4541 22.3001C28.0062 22.3565 27.5894 22.5589 27.2682 22.876C26.9469 23.1931 26.7391 23.6073 26.6769 24.0543C26.6147 24.5014 26.7015 24.9566 26.924 25.3493C23.9307 26.968 18.0827 26.016 12.5267 22.808C10.096 21.4053 7.96933 19.7173 6.34 17.9267C6.30215 17.8848 6.25639 17.8509 6.20535 17.8269C6.15431 17.8029 6.09902 17.7892 6.04266 17.7867ZM3.292 23.1427C3.60884 23.1427 3.91271 23.2685 4.13675 23.4926C4.3608 23.7166 4.48666 24.0205 4.48666 24.3373C4.48666 24.6542 4.3608 24.958 4.13675 25.1821C3.91271 25.4061 3.60884 25.532 3.292 25.532C2.97515 25.532 2.67128 25.4061 2.44724 25.1821C2.2232 24.958 2.09733 24.6542 2.09733 24.3373C2.09733 24.0205 2.2232 23.7166 2.44724 23.4926C2.67128 23.2685 2.97515 23.1427 3.292 23.1427ZM28.708 23.1427C29.0248 23.1427 29.3287 23.2685 29.5528 23.4926C29.7768 23.7166 29.9027 24.0205 29.9027 24.3373C29.9027 24.6542 29.7768 24.958 29.5528 25.1821C29.3287 25.4061 29.0248 25.532 28.708 25.532C28.4204 25.5312 28.1426 25.4271 27.9253 25.2387L27.9173 25.224C27.8844 25.1741 27.8406 25.1321 27.7893 25.1013C27.6442 24.9268 27.5517 24.7146 27.5228 24.4894C27.4939 24.2643 27.5298 24.0355 27.6262 23.83C27.7226 23.6245 27.8755 23.4507 28.0671 23.329C28.2587 23.2073 28.481 23.1426 28.708 23.1427ZM10.0347 24.968C9.96405 24.9643 9.89361 24.9781 9.82961 25.0082C9.76562 25.0383 9.71004 25.0837 9.66783 25.1404C9.62561 25.1972 9.59806 25.2634 9.58762 25.3334C9.57718 25.4033 9.58418 25.4748 9.608 25.5413C11.0387 29.5387 13.3813 32 16.0133 32C17.9333 32 19.712 30.6907 21.0973 28.3853C21.1266 28.3372 21.1459 28.2837 21.1544 28.228C21.1628 28.1723 21.1602 28.1154 21.1465 28.0608C21.1329 28.0061 21.1086 27.9547 21.0749 27.9095C21.0413 27.8643 20.9991 27.8261 20.9507 27.7973C20.9024 27.7679 20.8488 27.7483 20.793 27.7398C20.7372 27.7312 20.6802 27.7338 20.6253 27.7475C20.5705 27.7611 20.5189 27.7855 20.4736 27.8193C20.4283 27.853 20.3901 27.8954 20.3613 27.944C19.116 30.0147 17.588 31.1427 16.0147 31.1427C13.8253 31.1427 11.7373 28.9467 10.4147 25.252C10.3865 25.1722 10.3351 25.1025 10.2672 25.052C10.1993 25.0014 10.1192 24.9722 10.0347 24.968Z" fill="#3c3c3c"/>
</g>
<defs>
<clipPath id="clip0_18_5904">
<rect width="32" height="32" fill="white"/>
</clipPath>
</defs>
</svg>
