<svg width="32" height="32" viewBox="0 0 32 32" fill="none" xmlns="http://www.w3.org/2000/svg">
<g clip-path="url(#clip0_18_5912)">
<path d="M16.0026 0C15.2464 0 14.5212 0.300407 13.9864 0.835136C13.4517 1.36986 13.1513 2.09511 13.1513 2.85133C13.1513 3.60755 13.4517 4.3328 13.9864 4.86753C14.5212 5.40226 15.2464 5.70267 16.0026 5.70267C16.7589 5.70267 17.4841 5.40226 18.0188 4.86753C18.5536 4.3328 18.854 3.60755 18.854 2.85133C18.854 2.09511 18.5536 1.36986 18.0188 0.835136C17.4841 0.300407 16.7589 0 16.0026 0ZM27.3893 6.57467C26.6331 6.57467 25.9078 6.87507 25.3731 7.4098C24.8384 7.94453 24.538 8.66978 24.538 9.426C24.538 10.1822 24.8384 10.9075 25.3731 11.4422C25.9078 11.9769 26.6331 12.2773 27.3893 12.2773C28.1455 12.2773 28.8708 11.9769 29.4055 11.4422C29.9402 10.9075 30.2406 10.1822 30.2406 9.426C30.2406 8.66978 29.9402 7.94453 29.4055 7.4098C28.8708 6.87507 28.1455 6.57467 27.3893 6.57467ZM27.3893 19.724C26.6331 19.724 25.9078 20.0244 25.3731 20.5591C24.8384 21.0939 24.538 21.8191 24.538 22.5753C24.538 23.3316 24.8384 24.0568 25.3731 24.5915C25.9078 25.1263 26.6331 25.4267 27.3893 25.4267C28.1455 25.4267 28.8708 25.1263 29.4055 24.5915C29.9402 24.0568 30.2406 23.3316 30.2406 22.5753C30.2406 21.8191 29.9402 21.0939 29.4055 20.5591C28.8708 20.0244 28.1455 19.724 27.3893 19.724ZM16.0026 26.2987C15.2466 26.2987 14.5215 26.599 13.9869 27.1336C13.4523 27.6682 13.152 28.3933 13.152 29.1493C13.152 29.9054 13.4523 30.6305 13.9869 31.1651C14.5215 31.6997 15.2466 32 16.0026 32C16.7587 32 17.4838 31.6997 18.0184 31.1651C18.553 30.6305 18.8533 29.9054 18.8533 29.1493C18.8533 28.3933 18.553 27.6682 18.0184 27.1336C17.4838 26.599 16.7587 26.2987 16.0026 26.2987ZM4.6133 19.7253C4.23894 19.7253 3.86825 19.7991 3.52239 19.9423C3.17653 20.0856 2.86228 20.2956 2.59757 20.5603C2.33286 20.825 2.12288 21.1392 1.97962 21.4851C1.83636 21.831 1.76263 22.2016 1.76263 22.576C1.76263 22.9504 1.83636 23.321 1.97962 23.6669C2.12288 24.0128 2.33286 24.327 2.59757 24.5917C2.86228 24.8564 3.17653 25.0664 3.52239 25.2097C3.86825 25.3529 4.23894 25.4267 4.6133 25.4267C5.36952 25.4267 6.09477 25.1263 6.62949 24.5915C7.16422 24.0568 7.46463 23.3316 7.46463 22.5753C7.46463 21.8191 7.16422 21.0939 6.62949 20.5591C6.09477 20.0244 5.36952 19.7253 4.6133 19.7253ZM4.6133 6.57467C3.85708 6.57467 3.13183 6.87507 2.5971 7.4098C2.06237 7.94453 1.76196 8.66978 1.76196 9.426C1.76196 10.1822 2.06237 10.9075 2.5971 11.4422C3.13183 11.9769 3.85708 12.2773 4.6133 12.2773C5.36952 12.2773 6.09477 11.9769 6.62949 11.4422C7.16422 10.9075 7.46463 10.1822 7.46463 9.426C7.46463 8.66978 7.16422 7.94453 6.62949 7.4098C6.09477 6.87507 5.36952 6.57467 4.6133 6.57467ZM16.0026 2.07067L3.9373 9.036V22.9667L16.0026 29.932L28.0653 22.9667V9.036L16.0026 2.07067ZM16.0026 4.20533L26.216 21.8987H5.78663L16.0026 4.20533ZM14.1533 4.7L5.2933 20.0493V9.81733L14.1533 4.7ZM17.852 4.7L26.7133 9.81733V20.0493L17.852 4.7ZM7.13996 23.2533H24.864L16.0026 28.368L7.13996 23.2533Z" fill="#3c3c3c"/>
</g>
<defs>
<clipPath id="clip0_18_5912">
<rect width="32" height="32" fill="white"/>
</clipPath>
</defs>
</svg>
