<svg width="32" height="32" viewBox="0 0 32 32" fill="none" xmlns="http://www.w3.org/2000/svg">
<path fill-rule="evenodd" clip-rule="evenodd" d="M29.8667 8.98773L16 0.895996L2.13336 8.98773V23.0123L4.2795 24.2645L8.66776 22.4896C9.25829 22.2505 9.764 21.8405 10.1201 21.3122C10.4762 20.7839 10.6666 20.1614 10.6667 19.5243V8.53333H12.8V19.5243C12.7999 20.5863 12.4826 21.6241 11.889 22.5048C11.2953 23.3854 10.4522 24.0687 9.46776 24.4672L6.6091 25.6235L16 31.104L29.8667 23.0144V8.98773ZM14.9334 12.8C14.9334 11.6684 15.3829 10.5832 16.183 9.78301C16.9832 8.98285 18.0684 8.53333 19.2 8.53333H21.6896C23.8486 8.53333 25.6 10.2827 25.6 12.4437V12.8H23.4667V12.4437C23.4667 12.2104 23.4207 11.9793 23.3314 11.7637C23.2421 11.5481 23.1112 11.3522 22.9462 11.1872C22.7812 11.0221 22.5853 10.8912 22.3697 10.8019C22.1541 10.7126 21.923 10.6667 21.6896 10.6667H19.2C18.6342 10.6667 18.0916 10.8914 17.6915 11.2915C17.2915 11.6916 17.0667 12.2342 17.0667 12.8C17.0667 13.3658 17.2915 13.9084 17.6915 14.3085C18.0916 14.7086 18.6342 14.9333 19.2 14.9333H21.3334C22.465 14.9333 23.5502 15.3829 24.3504 16.183C25.1505 16.9832 25.6 18.0684 25.6 19.2C25.6 20.3316 25.1505 21.4168 24.3504 22.217C23.5502 23.0171 22.465 23.4667 21.3334 23.4667H19.2C18.0684 23.4667 16.9832 23.0171 16.183 22.217C15.3829 21.4168 14.9334 20.3316 14.9334 19.2H17.0667C17.0667 19.7658 17.2915 20.3084 17.6915 20.7085C18.0916 21.1086 18.6342 21.3333 19.2 21.3333H21.3334C21.8992 21.3333 22.4418 21.1086 22.8419 20.7085C23.2419 20.3084 23.4667 19.7658 23.4667 19.2C23.4667 18.6342 23.2419 18.0916 22.8419 17.6915C22.4418 17.2914 21.8992 17.0667 21.3334 17.0667H19.2C18.0684 17.0667 16.9832 16.6171 16.183 15.817C15.3829 15.0168 14.9334 13.9316 14.9334 12.8Z" fill="#3c3c3c"/>
</svg>
