<svg width="48" height="48" viewBox="0 0 48 48" fill="none" xmlns="http://www.w3.org/2000/svg">
<g clip-path="url(#clip0_18_5896)">
<path d="M24 11C10.542 11 0 16.71 0 24C0 31.29 10.542 37 24 37C37.458 37 48 31.29 48 24C48 16.71 37.458 11 24 11ZM21.508 15H24.128L23.296 19H25.636C27.12 19 28.116 19.208 28.684 19.726C29.238 20.238 29.406 21.078 29.184 22.222L28.144 27H25.48L26.438 22.582C26.5527 21.9727 26.508 21.556 26.304 21.332C26.102 21.11 25.656 21 24.988 21H22.89L21.624 27H19L21.508 15ZM10 19H15.332C17.874 19 19.414 20.704 18.812 23.246C18.112 26.2 16.24 27 12.792 27H11.144L10.622 30H7.972L10 19ZM31 19H36.332C38.874 19 40.414 20.704 39.812 23.246C39.112 26.2 37.238 27 33.792 27H32.144L31.622 30H28.972L31 19ZM12.27 21L11.516 25H13.226C14.706 25 16.082 24.832 16.312 22.626C16.398 21.77 16.042 21 14.332 21H12.27ZM33.27 21L32.516 25H34.226C35.706 25 37.082 24.832 37.312 22.626C37.398 21.77 37.044 21 35.332 21H33.27Z" fill="#3c3c3c"/>
</g>
<defs>
<clipPath id="clip0_18_5896">
<rect width="48" height="48" fill="white"/>
</clipPath>
</defs>
</svg>
