<svg width="32" height="32" viewBox="0 0 32 32" fill="none" xmlns="http://www.w3.org/2000/svg">
<path d="M22.4067 1.33325C21.2331 1.34423 20.0661 1.51011 18.936 1.82659L18.856 1.85059C18.1444 1.72857 17.4245 1.66127 16.7027 1.64925C15.2187 1.62392 13.9427 1.97325 12.916 2.55592C11.9027 2.21459 9.80133 1.62659 7.58667 1.74392C6.044 1.82525 4.36133 2.27992 3.11466 3.55725C1.87066 4.83459 1.21333 6.81059 1.352 9.49992C1.38933 10.2426 1.60666 11.4519 1.96933 13.0199C2.32933 14.5866 2.83867 16.4199 3.472 18.0933C4.10533 19.7666 4.8 21.2719 5.88533 22.2933C6.42666 22.8053 7.172 23.2359 8.05066 23.1999C8.668 23.1759 9.22667 22.9133 9.708 22.5253C9.94267 22.8253 10.1933 22.9559 10.4213 23.0773C10.708 23.2293 10.988 23.3333 11.2773 23.4026C12.0786 23.608 12.9131 23.6493 13.7307 23.5239C14.0867 23.4666 14.4613 23.3546 14.8347 23.1946C14.848 23.5973 14.864 23.9919 14.8813 24.3919C14.932 25.6586 14.9653 26.8279 15.3573 27.8533C15.42 28.0213 15.592 28.8839 16.2733 29.6453C16.9533 30.4079 18.2867 30.8826 19.804 30.5679C20.8747 30.3453 22.2373 29.9439 23.1413 28.6959C24.0347 27.4613 24.4387 25.6906 24.5187 22.8173C24.5387 22.6626 24.5627 22.5306 24.588 22.4066L24.8013 22.4253H24.8253C25.968 22.4759 27.208 22.3186 28.244 21.8519C29.1613 21.4386 29.8547 21.0226 30.36 20.2826C30.4867 20.0999 30.6253 19.8786 30.6627 19.4959C30.7 19.1159 30.476 18.5186 30.1013 18.2439C29.3507 17.6919 28.88 17.9013 28.3747 18.0039C27.8769 18.1106 27.372 18.1697 26.86 18.1813C28.3173 15.8026 29.3613 13.2746 29.9573 11.0373C30.3093 9.71725 30.508 8.49992 30.524 7.43592C30.54 6.37192 30.4507 5.42925 29.7933 4.61325C27.7387 2.06659 24.8493 1.36259 22.6147 1.33859C22.5453 1.33681 22.476 1.33636 22.4067 1.33725V1.33325ZM22.348 2.11592C24.4613 2.09592 27.1627 2.67192 29.1013 5.07592C29.5373 5.61592 29.6667 6.40525 29.652 7.37859C29.636 8.35059 29.4507 9.51325 29.112 10.7879C28.4547 13.2573 27.212 16.1346 25.4613 18.7186C25.5235 18.7617 25.5906 18.797 25.6613 18.8239C26.0267 18.9706 26.8587 19.0959 28.5213 18.7653C28.9387 18.6786 29.2453 18.6213 29.5627 18.8559C29.6386 18.9189 29.6989 18.9987 29.7389 19.0889C29.779 19.1791 29.7976 19.2773 29.7933 19.3759C29.7757 19.5248 29.7191 19.6665 29.6293 19.7866C29.3093 20.2546 28.6747 20.6986 27.8613 21.0639C27.1427 21.3893 26.1107 21.5586 25.196 21.5693C24.7373 21.5733 24.3147 21.5386 23.956 21.4306L23.932 21.4226C23.7933 22.7173 23.4747 25.2759 23.268 26.4426C23.1013 27.3839 22.8107 28.1319 22.2547 28.6919C21.7 29.2519 20.916 29.5893 19.86 29.8093C18.552 30.0813 17.5987 29.7879 16.984 29.2853C16.3707 28.7853 16.0893 28.1199 15.92 27.7119C15.804 27.4319 15.744 27.0679 15.6853 26.5813C15.6208 25.9986 15.5777 25.4137 15.556 24.8279C15.5177 23.8008 15.5053 22.773 15.5187 21.7453C14.972 22.2293 14.292 22.5519 13.5627 22.6733C12.696 22.8159 11.92 22.6759 11.4573 22.5639C11.2305 22.508 11.0112 22.4252 10.804 22.3173C10.588 22.2066 10.384 22.0813 10.248 21.8333C10.1679 21.6917 10.1423 21.5257 10.176 21.3666C10.2197 21.2049 10.3164 21.0626 10.4507 20.9626C10.7013 20.7653 11.0307 20.6559 11.528 20.5546C12.4347 20.3746 12.7507 20.2506 12.9427 20.1026C13.1067 19.9759 13.292 19.7199 13.62 19.3426L13.616 19.2933C13.0314 19.2761 12.4584 19.1266 11.94 18.8559C11.752 19.0479 10.7867 20.0386 9.60933 21.4119C9.11466 21.9866 8.568 22.3159 7.99066 22.3399C7.41333 22.3639 6.892 22.0813 6.44933 21.6653C5.56266 20.8306 4.856 19.3946 4.24 17.7719C3.62666 16.1479 3.12533 14.3399 2.77067 12.7999C2.41333 11.2599 2.20266 10.0186 2.17333 9.41992C2.04 6.87459 2.65333 5.15992 3.70667 4.07859C4.76 2.99725 6.20267 2.58659 7.61067 2.50925C10.136 2.36792 12.5347 3.22259 13.02 3.40659C13.9547 2.79059 15.1587 2.40659 16.664 2.43059C17.3775 2.44051 18.0877 2.52995 18.7813 2.69725L18.8067 2.68659C19.1124 2.58259 19.4227 2.49547 19.7373 2.42525C20.594 2.2319 21.4685 2.12911 22.3467 2.11859L22.348 2.11592ZM22.5387 2.93459H22.356C21.6346 2.9443 20.9158 3.02288 20.2093 3.16925C21.6116 3.78002 22.8437 4.72377 23.7987 5.91859C24.3772 6.63339 24.857 7.42267 25.2253 8.26525C25.364 8.58792 25.4573 8.86125 25.5093 9.07192C25.536 9.17859 25.5547 9.26792 25.56 9.36125C25.5649 9.42033 25.56 9.47981 25.5453 9.53725L25.5373 9.55325C25.576 10.6239 25.3027 11.3493 25.2693 12.3706C25.244 13.1119 25.4387 13.9826 25.4867 14.9306C25.532 15.8239 25.4213 16.8039 24.824 17.7666C24.8738 17.8253 24.9218 17.8839 24.968 17.9426C26.548 15.5293 27.688 12.8573 28.2947 10.5813C28.6187 9.35459 28.792 8.24392 28.8067 7.36392C28.82 6.48392 28.6507 5.84525 28.4347 5.57992C26.744 3.48259 24.4573 2.94925 22.5387 2.93459ZM16.5053 3.24659C15.016 3.24925 13.9467 3.68659 13.1373 4.33992C12.3013 5.01592 11.7413 5.93992 11.3733 6.88792C11.0171 7.8353 10.7993 8.82907 10.7267 9.83859L10.744 9.82925C11.1933 9.58392 11.784 9.33992 12.416 9.19859C13.0493 9.05725 13.7307 9.01325 14.348 9.24525C14.9653 9.47725 15.476 10.0239 15.6613 10.8533C16.548 14.8346 15.3853 16.3146 14.956 17.4306C14.7949 17.8356 14.6561 18.2491 14.54 18.6693C14.5933 18.6541 14.6471 18.6435 14.7013 18.6373C14.9356 18.6246 15.1692 18.6704 15.3813 18.7706C15.8133 18.9439 16.1093 19.3066 16.2693 19.7226C16.3111 19.8328 16.3409 19.9484 16.3587 20.0693C16.3764 20.1199 16.3849 20.1719 16.384 20.2253C16.3361 21.7476 16.3414 23.2712 16.4 24.7933C16.4293 25.4519 16.472 26.0306 16.5267 26.4879C16.58 26.9439 16.6573 27.2906 16.7067 27.4079C16.8667 27.7999 17.1027 28.3119 17.5293 28.6599C17.956 29.0079 18.5653 29.2386 19.6813 29.0066C20.6493 28.8053 21.2467 28.5266 21.6467 28.1226C22.044 27.7213 22.2827 27.1626 22.4347 26.3053C22.6627 25.0213 23.1213 21.2999 23.176 20.5986C23.152 20.0719 23.232 19.6653 23.4053 19.3559C23.5853 19.0386 23.8627 18.8439 24.1013 18.7386C24.2213 18.6853 24.3333 18.6506 24.4253 18.6253C24.3273 18.4896 24.225 18.3571 24.1187 18.2279C23.7739 17.8246 23.4912 17.372 23.28 16.8853C23.1782 16.685 23.0702 16.488 22.956 16.2946C22.7893 16.0013 22.5773 15.6346 22.356 15.2226C21.912 14.3973 21.4293 13.3973 21.1787 12.4226C20.9293 11.4506 20.892 10.4439 21.532 9.73325C22.1 9.10259 23.0947 8.84125 24.5893 8.98792C24.5453 8.85992 24.5187 8.75325 24.444 8.58259C24.1067 7.80791 23.6658 7.08261 23.1333 6.42659C21.8667 4.85592 19.8173 3.29859 16.6493 3.24792H16.5053V3.24659ZM8.13733 3.30925C7.97733 3.30925 7.81733 3.3137 7.65733 3.32259C6.38533 3.39325 5.18266 3.75192 4.32266 4.63725C3.46 5.52125 2.89333 6.97192 3.016 9.37459C3.04133 9.82792 3.24533 11.1026 3.59467 12.6146C3.944 14.1293 4.44 15.9093 5.03466 17.4813C5.62933 19.0546 6.352 20.4239 7.03733 21.0719C7.38266 21.3959 7.68266 21.5266 7.95467 21.5159C8.228 21.5026 8.556 21.3506 8.95866 20.8826C9.69199 20.0244 10.4524 19.1898 11.2387 18.3799C10.6831 17.914 10.2554 17.3143 9.996 16.6373C9.73868 15.9667 9.66056 15.2406 9.76933 14.5306C9.89867 13.6266 9.916 12.7813 9.90133 12.1146C9.88533 11.4639 9.83733 11.0319 9.83733 10.7613V10.7239C9.83596 9.31477 10.0884 7.91689 10.5827 6.59725C10.9347 5.68792 11.46 4.76392 12.248 4.01592C11.4747 3.76925 10.1013 3.39325 8.61467 3.32259C8.45481 3.31403 8.29475 3.30958 8.13466 3.30925H8.13733ZM23.756 9.76525C22.9013 9.77592 22.4213 9.99059 22.1693 10.2706C21.812 10.6679 21.7787 11.3639 22 12.2226C22.2213 13.0813 22.676 14.0426 23.1053 14.8399C23.3187 15.2399 23.5267 15.5999 23.6947 15.8906C23.864 16.1839 23.988 16.3919 24.0627 16.5706C24.1338 16.7315 24.2084 16.8786 24.2867 17.0119C24.6173 16.3333 24.6773 15.6679 24.6427 14.9733C24.5987 14.1146 24.3933 13.2359 24.424 12.3466C24.4573 11.3066 24.6693 10.6279 24.688 9.82392C24.3787 9.78623 24.0675 9.76664 23.756 9.76525ZM13.3827 9.90525C13.1215 9.90723 12.8613 9.93764 12.6067 9.99592C12.1005 10.1153 11.6119 10.2999 11.1533 10.5453C10.9996 10.6253 10.8529 10.7181 10.7133 10.8239L10.6867 10.8479C10.6947 11.0266 10.7307 11.4599 10.7467 12.0959C10.76 12.7933 10.744 13.6826 10.6053 14.6426C10.304 16.7333 11.8667 18.4639 13.704 18.4666C13.8107 18.0373 13.988 17.6026 14.164 17.1439C14.676 15.8066 15.6827 14.8319 14.8347 11.0253C14.696 10.4026 14.4213 10.1506 14.0427 10.0079C13.8306 9.93429 13.607 9.89952 13.3827 9.90525ZM23.356 10.1546H23.42C23.5036 10.1573 23.5791 10.1661 23.6467 10.1813C23.708 10.1936 23.7667 10.2166 23.82 10.2493C23.8443 10.2636 23.8653 10.2828 23.8816 10.3058C23.8979 10.3288 23.9092 10.3549 23.9147 10.3826V10.3933C23.9182 10.4519 23.9022 10.51 23.8693 10.5586C23.8321 10.6258 23.7854 10.6873 23.7307 10.7413C23.6014 10.8784 23.4311 10.9696 23.2453 11.0013C23.0633 11.0228 22.8795 10.9778 22.728 10.8746C22.667 10.8343 22.6118 10.7859 22.564 10.7306C22.5235 10.6874 22.4959 10.6339 22.484 10.5759C22.4811 10.5474 22.4844 10.5186 22.4936 10.4915C22.5028 10.4643 22.5177 10.4395 22.5373 10.4186C22.58 10.3738 22.63 10.3368 22.6853 10.3093C22.8965 10.2123 23.125 10.1588 23.3573 10.1519L23.356 10.1546ZM13.5053 10.3599C13.572 10.3599 13.6418 10.3653 13.7147 10.3759C13.9067 10.4026 14.0787 10.4519 14.2093 10.5253C14.2733 10.5581 14.3293 10.6013 14.3773 10.6546C14.4022 10.6839 14.4209 10.7164 14.4333 10.7519C14.4458 10.7875 14.4498 10.8244 14.4453 10.8626C14.4332 10.9333 14.4002 10.9987 14.3507 11.0506C14.2991 11.1127 14.2384 11.1666 14.1707 11.2106C14.0051 11.3234 13.8042 11.3722 13.6053 11.3479C13.4036 11.3153 13.2181 11.2174 13.0773 11.0693C13.0188 11.0096 12.9686 10.9423 12.928 10.8693C12.8865 10.8053 12.8681 10.7291 12.876 10.6533C12.8947 10.5199 13.008 10.4533 13.116 10.4133C13.2408 10.3736 13.3719 10.3574 13.5027 10.3653L13.5053 10.3599ZM24.9187 19.3359H24.9147C24.7293 19.4026 24.5773 19.4293 24.448 19.4826C24.3192 19.5304 24.2124 19.6239 24.148 19.7453C24.068 19.8853 24.0013 20.1346 24.0213 20.5586C24.0788 20.5965 24.1417 20.6253 24.208 20.6439C24.4227 20.7079 24.784 20.7506 25.188 20.7439C25.9907 20.7346 26.98 20.5533 27.5053 20.3159C27.936 20.1213 28.336 19.8679 28.6933 19.5639C26.9373 19.9159 25.9467 19.8226 25.3373 19.5786C25.187 19.5173 25.0461 19.4365 24.9187 19.3359ZM14.8013 19.4493H14.7747C14.708 19.4546 14.6107 19.4759 14.424 19.6786C13.984 20.1559 13.832 20.4546 13.4693 20.7346C13.1093 21.0146 12.6387 21.1626 11.7 21.3493C11.4027 21.4079 11.2333 21.4733 11.1187 21.5253C11.156 21.5546 11.152 21.5626 11.2067 21.5906C11.344 21.6639 11.5213 21.7279 11.6627 21.7639C12.0667 21.8613 12.7293 21.9759 13.4213 21.8613C14.1133 21.7466 14.832 21.4253 15.4453 20.5906C15.552 20.4466 15.5627 20.2333 15.476 20.0039C15.3867 19.7773 15.1947 19.5799 15.0587 19.5239C14.9775 19.4857 14.8905 19.4613 14.8013 19.4519V19.4493Z" fill="#3c3c3c"/>
</svg>
