<svg width="32" height="32" viewBox="0 0 32 32" fill="none" xmlns="http://www.w3.org/2000/svg">
<g clip-path="url(#clip0_18_5908)">
<path d="M29.076 24.38L18.0707 1.0093C17.9345 0.720849 17.7225 0.474817 17.4574 0.297507C17.1923 0.120196 16.8839 0.0182738 16.5653 0.00263486C16.2466 -0.018576 15.9282 0.0480225 15.6446 0.195186C15.3611 0.342349 15.1234 0.564441 14.9573 0.837302L3.02132 20.1706C2.84079 20.4628 2.74694 20.8003 2.75072 21.1437C2.7545 21.4872 2.85574 21.8225 3.04266 22.1106L8.87732 31.148C9.09847 31.4865 9.42287 31.7446 9.80236 31.8842C10.1819 32.0237 10.5962 32.0372 10.984 31.9226L27.9213 26.9133C28.44 26.76 28.864 26.3933 29.0853 25.9066C29.3067 25.42 29.304 24.8626 29.076 24.38ZM26.612 25.3826L12.24 29.632C12.1404 29.6623 12.0347 29.6663 11.9331 29.6435C11.8315 29.6208 11.7375 29.5722 11.6603 29.5024C11.5831 29.4326 11.5253 29.3439 11.4926 29.2451C11.4598 29.1464 11.4532 29.0408 11.4733 28.9386L16.6067 4.35464C16.7027 3.89463 17.3387 3.8213 17.5387 4.24797L27.044 24.432C27.086 24.522 27.108 24.62 27.1085 24.7193C27.1089 24.8186 27.0878 24.9169 27.0466 25.0073C27.0054 25.0976 26.9451 25.178 26.8698 25.2428C26.7946 25.3076 26.7075 25.3553 26.612 25.3826Z" fill="#3c3c3c"/>
</g>
<defs>
<clipPath id="clip0_18_5908">
<rect width="32" height="32" fill="white"/>
</clipPath>
</defs>
</svg>
