<svg width="32" height="32" viewBox="0 0 32 32" fill="none" xmlns="http://www.w3.org/2000/svg">
<g clip-path="url(#clip0_18_5892)">
<path d="M3.19999 6.39994C5.68228 3.0941 9.34778 0.877362 13.4283 0.214288C17.5088 -0.448786 21.6876 0.493278 25.0889 2.84305C28.4902 5.19282 30.85 8.7679 31.6738 12.819C32.4975 16.8702 31.7212 21.0829 29.5076 24.5744C27.294 28.0659 23.815 30.565 19.7995 31.5481C15.7841 32.5312 11.5439 31.922 7.96777 29.848C4.39159 27.7741 1.75696 24.3964 0.616013 20.4229C-0.524931 16.4495 -0.0836203 12.1886 1.84746 8.53328H4.53973L10.7115 29.1071C10.7772 29.3264 10.9116 29.5187 11.095 29.6556C11.2784 29.7926 11.501 29.8669 11.7299 29.8676C11.9588 29.8683 12.1818 29.7954 12.366 29.6596C12.5503 29.5238 12.686 29.3324 12.7531 29.1135L16.0405 18.4255L19.2448 29.1071C19.3085 29.319 19.4364 29.5058 19.6109 29.6417C19.7854 29.7776 19.9979 29.8559 20.2189 29.8658C20.4398 29.8756 20.6584 29.8165 20.8443 29.6966C21.0302 29.5768 21.1743 29.4021 21.2565 29.1967L28.7872 10.3658C29.1613 9.42989 29.2167 8.39678 28.9449 7.42621C28.673 6.45563 28.089 5.60162 27.2832 4.99621L27.0016 4.78288C26.2091 4.1904 25.2296 3.90332 24.2427 3.97423C23.2557 4.04514 22.3274 4.46929 21.6277 5.16897C20.928 5.86864 20.5039 6.797 20.4329 7.78395C20.362 8.77091 20.6491 9.75036 21.2416 10.5429L22.6133 12.3733L24.32 11.0933L22.9483 9.26501C22.6639 8.88332 22.5264 8.41203 22.5609 7.93731C22.5954 7.46259 22.7996 7.01613 23.1362 6.67957C23.4727 6.343 23.9192 6.1388 24.3939 6.10431C24.8686 6.06981 25.3399 6.20731 25.7216 6.49168L26.0032 6.70288C26.8907 7.36848 27.2192 8.54394 26.8075 9.57221L20.4096 25.5679L15.3003 8.53328H17.0667V6.39994H10.6667V8.53328H13.0731L14.9397 14.7541L11.7461 25.1306L6.76693 8.53328H8.53333V6.39994H3.19999Z" fill="#3c3c3c"/>
</g>
<defs>
<clipPath id="clip0_18_5892">
<rect width="32" height="32" fill="white"/>
</clipPath>
</defs>
</svg>
