<svg width="26" height="32" viewBox="0 0 26 32" fill="none" xmlns="http://www.w3.org/2000/svg">
<path d="M7.948 26.8827C6.36667 25.456 5.90533 22.4613 6.564 20.2907C7.70533 21.6587 9.288 22.0933 10.9267 22.3373C13.456 22.7147 15.94 22.5733 18.2893 21.4333C18.5587 21.3027 18.8067 21.128 19.1 20.9533C19.3213 21.584 19.3787 22.22 19.3013 22.8693C19.1147 24.4493 18.3173 25.6693 17.0507 26.5947C16.544 26.964 16.008 27.2947 15.484 27.644C13.8773 28.716 13.4427 29.9733 14.0467 31.8027L14.1053 32C13.3366 31.67 12.6835 31.1185 12.2293 30.416C11.7562 29.6976 11.504 28.8562 11.504 27.996C11.4987 27.5693 11.4987 27.14 11.44 26.7187C11.2987 25.6933 10.8107 25.2347 9.892 25.208C8.94933 25.1813 8.20267 25.756 8.00533 26.6613C7.98933 26.732 7.968 26.8 7.94533 26.8813L7.948 26.8827ZM0 20.956C0 20.956 4.32 18.856 8.65333 18.856L11.9213 8.76933C12.044 8.28133 12.4013 7.95067 12.804 7.95067C13.2067 7.95067 13.564 8.28133 13.6867 8.76933L16.9533 18.856C22.0867 18.856 25.608 20.956 25.608 20.956L18.2547 0.969333C18.044 0.38 17.688 0 17.208 0H8.4C7.92 0 7.58 0.38 7.35467 0.969333L0 20.956Z" fill="#3c3c3c"/>
</svg>
