<svg width="32" height="32" viewBox="0 0 32 32" fill="none" xmlns="http://www.w3.org/2000/svg">
<path fill-rule="evenodd" clip-rule="evenodd" d="M0.281064 0.3456C0.380877 0.236795 0.502191 0.149898 0.637327 0.0904085C0.772464 0.030919 0.91848 0.000133181 1.06613 0L30.9328 0C31.0804 6.87379e-05 31.2264 0.030764 31.3615 0.0901443C31.4966 0.149525 31.6179 0.236298 31.7178 0.344975C31.8176 0.453653 31.8938 0.58187 31.9416 0.721517C31.9893 0.861164 32.0076 1.0092 31.9952 1.15627L29.8619 26.5771C29.8442 26.7847 29.7661 26.9827 29.6372 27.1465C29.5083 27.3103 29.3343 27.4327 29.1365 27.4987L16.3365 31.7653C16.1177 31.8382 15.8812 31.8382 15.6624 31.7653L2.8624 27.4987C2.66468 27.4327 2.49061 27.3103 2.3617 27.1465C2.2328 26.9827 2.1547 26.7847 2.13706 26.5771L0.00373094 1.15627C-0.00859252 1.00931 0.00969043 0.861396 0.0574252 0.721864C0.10516 0.582331 0.181309 0.454213 0.281064 0.3456ZM23.4661 6.4H8.5328V8.53333H21.3328V12.8H12.7995V14.9333H21.3328V19.4987L15.9995 21.2757L10.6661 19.4987V17.0667H8.5328V21.0347L15.9995 23.5243L23.4661 21.0347V6.4Z" fill="#3c3c3c"/>
</svg>
