<svg width="32" height="32" viewBox="0 0 32 32" fill="none" xmlns="http://www.w3.org/2000/svg">
<path fill-rule="evenodd" clip-rule="evenodd" d="M0.281064 0.343467C0.381065 0.23505 0.502463 0.14855 0.637591 0.0894322C0.772718 0.030314 0.918637 -0.000137835 1.06613 4.68995e-07H30.9328C31.0804 6.92069e-05 31.2264 0.0307645 31.3615 0.0901448C31.4966 0.149525 31.6179 0.236298 31.7178 0.344976C31.8176 0.453653 31.8938 0.581871 31.9416 0.721517C31.9893 0.861164 32.0076 1.0092 31.9952 1.15627L29.8619 26.7563C29.8442 26.9639 29.7661 27.1619 29.6372 27.3257C29.5083 27.4895 29.3343 27.6119 29.1365 27.6779L16.3365 31.9445C16.1177 32.0174 15.8812 32.0174 15.6624 31.9445L2.8624 27.6779C2.66436 27.6118 2.49008 27.489 2.36115 27.3248C2.23221 27.1606 2.1543 26.9622 2.13706 26.7541L0.00373094 1.15413C-0.00859252 1.00718 0.00969043 0.859263 0.0574252 0.719731C0.10516 0.580199 0.181309 0.45208 0.281064 0.343467ZM23.4661 6.4H8.5328V14.9333H21.3328V19.4987L15.9995 21.2757L10.6661 19.4987V17.0667H8.5328V21.0347L15.9995 23.5243L23.4661 21.0347V12.8H10.6661V8.53333H23.4661V6.4Z" fill="#3c3c3c"/>
</svg>
