<svg width="32" height="32" viewBox="0 0 32 32" fill="none" xmlns="http://www.w3.org/2000/svg">
<path fill-rule="evenodd" clip-rule="evenodd" d="M32 0H0V32H32V0ZM17.0667 17.0667C17.0667 15.9351 17.5162 14.8498 18.3163 14.0497C19.1165 13.2495 20.2017 12.8 21.3333 12.8H23.8229C25.9819 12.8 27.7333 14.5493 27.7333 16.7104V17.0667H25.6V16.7104C25.6 16.477 25.554 16.246 25.4647 16.0303C25.3754 15.8147 25.2445 15.6188 25.0795 15.4538C24.9145 15.2888 24.7186 15.1579 24.503 15.0686C24.2874 14.9793 24.0563 14.9333 23.8229 14.9333H21.3333C20.7675 14.9333 20.2249 15.1581 19.8248 15.5582C19.4248 15.9583 19.2 16.5009 19.2 17.0667C19.2 17.6325 19.4248 18.1751 19.8248 18.5752C20.2249 18.9752 20.7675 19.2 21.3333 19.2H23.4667C24.5983 19.2 25.6835 19.6495 26.4837 20.4497C27.2838 21.2498 27.7333 22.3351 27.7333 23.4667C27.7333 24.5983 27.2838 25.6835 26.4837 26.4837C25.6835 27.2838 24.5983 27.7333 23.4667 27.7333H21.3333C20.2017 27.7333 19.1165 27.2838 18.3163 26.4837C17.5162 25.6835 17.0667 24.5983 17.0667 23.4667H19.2C19.2 24.0325 19.4248 24.5751 19.8248 24.9752C20.2249 25.3752 20.7675 25.6 21.3333 25.6H23.4667C24.0325 25.6 24.5751 25.3752 24.9752 24.9752C25.3752 24.5751 25.6 24.0325 25.6 23.4667C25.6 22.9009 25.3752 22.3583 24.9752 21.9582C24.5751 21.5581 24.0325 21.3333 23.4667 21.3333H21.3333C20.2017 21.3333 19.1165 20.8838 18.3163 20.0837C17.5162 19.2835 17.0667 18.1983 17.0667 17.0667ZM12.8 12.8V23.4667C12.8 24.0325 12.5752 24.5751 12.1752 24.9752C11.7751 25.3752 11.2325 25.6 10.6667 25.6C10.1009 25.6 9.55825 25.3752 9.15817 24.9752C8.7581 24.5751 8.53333 24.0325 8.53333 23.4667H6.4C6.4 24.5983 6.84952 25.6835 7.64968 26.4837C8.44983 27.2838 9.53508 27.7333 10.6667 27.7333C11.7983 27.7333 12.8835 27.2838 13.6837 26.4837C14.4838 25.6835 14.9333 24.5983 14.9333 23.4667V12.8H12.8Z" fill="#3c3c3c"/>
</svg>
