<svg width="32" height="32" viewBox="0 0 32 32" fill="none" xmlns="http://www.w3.org/2000/svg">
<path fill-rule="evenodd" clip-rule="evenodd" d="M4.60517e-07 15.998C0.000351663 13.2372 0.715027 10.5236 2.07454 8.12081C3.43406 5.71804 5.39216 3.70792 7.75847 2.28588C10.1248 0.863844 12.8188 0.0782759 15.5785 0.00555322C18.3383 -0.0671695 21.0699 0.575428 23.5078 1.87087C25.9458 3.16631 28.007 5.07052 29.4912 7.39835C30.9753 9.72619 31.8319 12.3984 31.9777 15.1553C32.1234 17.9122 31.5534 20.6599 30.3229 23.1312C29.0925 25.6026 27.2435 27.7135 24.9557 29.2588L10.4661 8.9793C10.3346 8.79628 10.1484 8.65964 9.93442 8.58897C9.72039 8.51831 9.48948 8.51725 9.27482 8.58596C9.06016 8.65468 8.87278 8.78962 8.73957 8.97143C8.60635 9.15324 8.53416 9.37258 8.53333 9.59797V25.598H10.6667V12.926L23.104 30.3382C20.6643 31.5471 17.9565 32.1135 15.2368 31.9836C12.5172 31.8537 9.87564 31.032 7.56226 29.5961C5.24888 28.1602 3.34019 26.1577 2.01687 23.7782C0.693538 21.3986 -0.000652719 18.7207 4.60517e-07 15.998ZM21.3333 21.3313V8.5313H23.4667V21.3313H21.3333Z" fill="#3c3c3c"/>
</svg>
