<svg width="28" height="32" viewBox="0 0 28 32" fill="none" xmlns="http://www.w3.org/2000/svg">
<path fill-rule="evenodd" clip-rule="evenodd" d="M25.8954 4.01222C26.8336 5.51262 27.2822 7.26759 27.179 9.03416C27.0758 10.8007 26.4259 12.4915 25.3194 13.8725C26.2047 15.7615 26.3673 17.9094 25.7765 19.9102C25.1857 21.911 23.8824 23.626 22.113 24.7312L13.0677 30.3845C11.3582 31.4568 9.32402 31.8885 7.32636 31.6031C5.32871 31.3177 3.49684 30.3335 2.15604 28.8255C0.815234 27.3174 0.0522578 25.3829 0.00258738 23.3656C-0.047083 21.3483 0.619767 19.3786 1.88473 17.8064C0.999467 15.9173 0.836869 13.7694 1.42767 11.7687C2.01847 9.76789 3.32173 8.05285 5.09113 6.94769L14.1343 1.29649C15.0847 0.70266 16.1428 0.30185 17.2481 0.116949C18.3534 -0.0679522 19.4843 -0.0333229 20.5763 0.218859C21.6682 0.471041 22.6998 0.935837 23.6121 1.58671C24.5244 2.23757 25.2995 3.06177 25.8933 4.01222M15.265 3.10769C16.4939 2.33779 17.9478 2.00806 19.3886 2.1725C20.8294 2.33695 22.1716 2.98583 23.1954 4.01285C24.2192 5.03987 24.8639 6.38414 25.0238 7.82544C25.1837 9.26674 24.8494 10.7196 24.0757 11.9461C22.7695 10.4204 20.967 9.40439 18.9855 9.07676L20.5301 8.11036L19.3994 6.30129L8.545 13.0853L9.67566 14.8922L14.1983 12.0677C15.6377 11.1681 17.3755 10.8771 19.0294 11.2588C20.6834 11.6405 22.1179 12.6635 23.0175 14.1029C23.9171 15.5423 24.2081 17.2801 23.8264 18.934C23.4448 20.5879 22.4217 22.0225 20.9823 22.9221L11.937 28.5754C10.7081 29.3453 9.25417 29.6751 7.81338 29.5106C6.37259 29.3462 5.03036 28.6973 4.00656 27.6703C2.98277 26.6432 2.33811 25.299 2.17819 23.8577C2.01827 22.4164 2.35257 20.9635 3.12633 19.737C4.43251 21.2627 6.23495 22.2787 8.21646 22.6064L6.6698 23.5706L7.80046 25.3797L18.657 18.5957L17.5263 16.7888L13.0037 19.6154C11.564 20.515 9.82592 20.8059 8.1718 20.424C6.51768 20.0422 5.08301 19.0188 4.1834 17.5792C3.28378 16.1395 2.99292 14.4014 3.37479 12.7473C3.75667 11.0932 4.78 9.65851 6.21966 8.75889L15.265 3.10769Z" fill="#3c3c3c"/>
</svg>
