<svg width="32" height="22" viewBox="0 0 32 22" fill="none" xmlns="http://www.w3.org/2000/svg">
<path d="M16.0004 0C13.8116 0 11.93 0.590933 10.4537 1.856C8.98601 3.11467 8.02814 4.94293 7.49481 7.22347C7.4382 7.465 7.46755 7.71871 7.57781 7.94094C7.68807 8.16317 7.87234 8.34002 8.09891 8.44106C8.32548 8.54209 8.58019 8.561 8.81919 8.49451C9.0582 8.42803 9.26655 8.28032 9.40841 8.0768C10.0825 7.11253 10.7567 6.5344 11.4052 6.23573C12.0324 5.94773 12.7087 5.89013 13.4852 6.09707C14.266 6.30613 14.8719 6.92053 15.8212 7.95307L15.8532 7.9872C16.57 8.76587 17.4425 9.7152 18.6372 10.4533C19.8788 11.2192 21.4212 11.7333 23.4671 11.7333C25.6559 11.7333 27.5375 11.1424 29.0137 9.87733C30.4815 8.61867 31.4415 6.7904 31.9727 4.50987C32.0293 4.26833 31.9999 4.01462 31.8897 3.79239C31.7794 3.57016 31.5951 3.39331 31.3686 3.29228C31.142 3.19124 30.8873 3.17234 30.6483 3.23882C30.4093 3.3053 30.2009 3.45301 30.0591 3.65653C29.3849 4.6208 28.7108 5.19893 28.0623 5.4976C27.4351 5.7856 26.7588 5.8432 25.9823 5.63627C25.2015 5.4272 24.5956 4.8128 23.6463 3.78027L23.6143 3.74613C22.8975 2.96747 22.0249 2.01813 20.8303 1.28C19.5887 0.514133 18.0463 0 16.0004 0ZM8.53374 9.6C6.34494 9.6 4.46334 10.1909 2.98708 11.456C1.51934 12.7147 0.561475 14.5429 0.0281421 16.8235C-0.0284656 17.065 0.000885232 17.3187 0.111144 17.5409C0.221402 17.7632 0.405673 17.94 0.632245 18.0411C0.858817 18.1421 1.11352 18.161 1.35252 18.0945C1.59153 18.028 1.79989 17.8803 1.94174 17.6768C2.61588 16.7125 3.29001 16.1344 3.93854 15.8357C4.56574 15.5477 5.24201 15.4901 6.01854 15.6971C6.79934 15.9061 7.40521 16.5205 8.35454 17.5531L8.38654 17.5872C9.10334 18.3659 9.97588 19.3152 11.1705 20.0533C12.4121 20.8192 13.9545 21.3333 16.0004 21.3333C18.1892 21.3333 20.0708 20.7424 21.5471 19.4773C23.0148 18.2187 23.9748 16.3904 24.506 14.1099C24.5626 13.8683 24.5333 13.6146 24.423 13.3924C24.3128 13.1702 24.1285 12.9933 23.9019 12.8923C23.6753 12.7912 23.4206 12.7723 23.1816 12.8388C22.9426 12.9053 22.7343 13.053 22.5924 13.2565C21.9183 14.2208 21.2441 14.7989 20.5956 15.0976C19.9684 15.3856 19.2921 15.4432 18.5156 15.2363C17.7348 15.0272 17.1289 14.4128 16.1796 13.3803L16.1476 13.3461C15.4329 12.5675 14.5583 11.6181 13.3636 10.88C12.122 10.112 10.5796 9.6 8.53374 9.6Z" fill="#3c3c3c"/>
</svg>
