<svg width="32" height="32" viewBox="0 0 32 32" fill="none" xmlns="http://www.w3.org/2000/svg">
<path d="M0.0107621 0.442984C-0.0550912 0.176359 0.192137 -0.0617264 0.456044 0.0143817L8.14469 2.22794C8.2137 2.22778 8.28133 2.24728 8.33966 2.28416L23.5032 6.64975C23.566 6.65098 23.628 6.6689 23.6819 6.70115L31.371 8.91495C31.6352 8.99106 31.7178 9.32465 31.5196 9.51517L8.31655 31.8347C8.1185 32.0253 7.78849 31.9299 7.72264 31.663L3.87374 16.0816C3.8686 16.0656 3.86456 16.0492 3.86163 16.0327L0.0107621 0.442984ZM6.59683 24.1292L8.26726 30.8915L13.2976 26.0526L6.59683 24.1292ZM11.7784 18.7813L6.90806 23.4757L13.396 25.3384L11.7784 18.7813ZM12.5013 18.7312L14.1139 25.2674L18.9708 20.5954L12.5013 18.7312ZM4.70883 16.4857L6.32848 23.043L11.193 18.3542L4.70883 16.4857ZM17.5217 13.239L12.5733 18.0089L19.1676 19.9091L17.5217 13.239ZM18.2151 13.0694L19.861 19.7392L24.823 14.9663L18.2151 13.0694ZM9.86528 11.0257L4.90627 15.7998L11.5127 17.7033L9.86528 11.0257ZM10.5559 10.8457L12.1737 17.4026L17.044 12.7081L10.5559 10.8457ZM2.76573 8.61892L4.41206 15.2847L9.36749 10.5141L2.76573 8.61892ZM23.2991 7.69352L18.4288 12.3879L24.9168 14.2506L23.2991 7.69352ZM23.9951 7.53413L25.6358 14.1845L30.5789 9.42967L23.9951 7.53413ZM15.6108 5.49478L10.7625 10.1622L17.22 12.0159L15.6108 5.49478ZM16.3028 5.31946L17.9229 11.8843L22.7945 7.18844L16.3028 5.31946ZM7.94911 3.27171L3.07881 7.9662L9.56678 9.82862L7.94911 3.27171ZM8.6457 3.11492L10.2594 9.6554L15.1179 4.97833L8.6457 3.11492ZM0.851781 0.871092L2.49787 7.53488L7.44267 2.76861L0.851781 0.871092Z" fill="#3c3c3c"/>
</svg>
