<svg width="32" height="32" viewBox="0 0 32 32" fill="none" xmlns="http://www.w3.org/2000/svg">
<path fill-rule="evenodd" clip-rule="evenodd" d="M0 0H32V32H0V0ZM21.3333 12.8C20.2017 12.8 19.1165 13.2495 18.3163 14.0497C17.5162 14.8498 17.0667 15.9351 17.0667 17.0667C17.0667 18.1983 17.5162 19.2835 18.3163 20.0837C19.1165 20.8838 20.2017 21.3333 21.3333 21.3333H23.4667C24.0325 21.3333 24.5751 21.5581 24.9752 21.9582C25.3752 22.3583 25.6 22.9009 25.6 23.4667C25.6 24.0325 25.3752 24.5751 24.9752 24.9752C24.5751 25.3752 24.0325 25.6 23.4667 25.6H21.3333C20.7675 25.6 20.2249 25.3752 19.8248 24.9752C19.4248 24.5751 19.2 24.0325 19.2 23.4667H17.0667C17.0667 24.5983 17.5162 25.6835 18.3163 26.4837C19.1165 27.2838 20.2017 27.7333 21.3333 27.7333H23.4667C24.5983 27.7333 25.6835 27.2838 26.4837 26.4837C27.2838 25.6835 27.7333 24.5983 27.7333 23.4667C27.7333 22.3351 27.2838 21.2498 26.4837 20.4497C25.6835 19.6495 24.5983 19.2 23.4667 19.2H21.3333C20.7675 19.2 20.2249 18.9752 19.8248 18.5752C19.4248 18.1751 19.2 17.6325 19.2 17.0667C19.2 16.5009 19.4248 15.9583 19.8248 15.5582C20.2249 15.1581 20.7675 14.9333 21.3333 14.9333H23.8229C24.8043 14.9333 25.6 15.7291 25.6 16.7104V17.0667H27.7333V16.7104C27.7333 14.5515 25.984 12.8 23.8229 12.8H21.3333ZM6.4 12.8H17.0667V14.9333H12.8V27.7333H10.6667V14.9333H6.4V12.8Z" fill="#3c3c3c"/>
</svg>
