{
	"asset":{
		"generator":"Khronos glTF Blender I/O v4.2.60",
		"version":"2.0"
	},
	"scene":0,
	"scenes":[
		{
			"name":"Scene",
			"nodes":[
				0,
				1,
				2
			]
		}
	],
	"nodes":[
		{
			"mesh":0,
			"name":"\u5186\u67f1",
			"rotation":[
				0.5,
				-0.5,
				-0.5,
				0.5
			],
			"scale":[
				0.8999999761581421,
				1,
				0.8999999761581421
			],
			"translation":[
				-0.053237490355968475,
				0.0265152957290411,
				0
			]
		},
		{
			"mesh":1,
			"name":"\u5186\u67f1.003",
			"rotation":[
				0.5,
				-0.5,
				-0.5,
				0.5
			],
			"scale":[
				0.550000011920929,
				1,
				0.550000011920929
			],
			"translation":[
				0.02575194090604782,
				-0.033224787563085556,
				0
			]
		},
		{
			"mesh":2,
			"name":"\u5186\u67f1.004",
			"rotation":[
				0.5,
				-0.5,
				-0.5,
				0.5
			],
			"scale":[
				0.30000001192092896,
				1,
				0.30000001192092896
			],
			"translation":[
				0.0745934471487999,
				0.003988534212112427,
				0
			]
		}
	],
	"meshes":[
		{
			"name":"\u5186\u67f1.002",
			"primitives":[
				{
					"attributes":{
						"POSITION":0,
						"NORMAL":1,
						"TEXCOORD_0":2
					},
					"indices":3
				}
			]
		},
		{
			"name":"\u5186\u67f1.006",
			"primitives":[
				{
					"attributes":{
						"POSITION":4,
						"NORMAL":5,
						"TEXCOORD_0":6
					},
					"indices":7
				}
			]
		},
		{
			"name":"\u5186\u67f1.007",
			"primitives":[
				{
					"attributes":{
						"POSITION":8,
						"NORMAL":9,
						"TEXCOORD_0":10
					},
					"indices":7
				}
			]
		}
	],
	"accessors":[
		{
			"bufferView":0,
			"componentType":5126,
			"count":72,
			"max":[
				0.060303717851638794,
				0.012918785214424133,
				0.06963273882865906
			],
			"min":[
				-0.060303717851638794,
				-0.012918785214424133,
				-0.06963273882865906
			],
			"type":"VEC3"
		},
		{
			"bufferView":1,
			"componentType":5126,
			"count":72,
			"type":"VEC3"
		},
		{
			"bufferView":2,
			"componentType":5126,
			"count":72,
			"type":"VEC2"
		},
		{
			"bufferView":3,
			"componentType":5123,
			"count":144,
			"type":"SCALAR"
		},
		{
			"bufferView":4,
			"componentType":5126,
			"count":72,
			"max":[
				0.06030372157692909,
				0.012918785214424133,
				0.06963273882865906
			],
			"min":[
				-0.060303714126348495,
				-0.012918785214424133,
				-0.06963273882865906
			],
			"type":"VEC3"
		},
		{
			"bufferView":5,
			"componentType":5126,
			"count":72,
			"type":"VEC3"
		},
		{
			"bufferView":6,
			"componentType":5126,
			"count":72,
			"type":"VEC2"
		},
		{
			"bufferView":7,
			"componentType":5123,
			"count":144,
			"type":"SCALAR"
		},
		{
			"bufferView":8,
			"componentType":5126,
			"count":72,
			"max":[
				0.060303717851638794,
				0.012918785214424133,
				0.06963275372982025
			],
			"min":[
				-0.060303717851638794,
				-0.012918785214424133,
				-0.06963272392749786
			],
			"type":"VEC3"
		},
		{
			"bufferView":9,
			"componentType":5126,
			"count":72,
			"type":"VEC3"
		},
		{
			"bufferView":10,
			"componentType":5126,
			"count":72,
			"type":"VEC2"
		}
	],
	"bufferViews":[
		{
			"buffer":0,
			"byteLength":864,
			"byteOffset":0,
			"target":34962
		},
		{
			"buffer":0,
			"byteLength":864,
			"byteOffset":864,
			"target":34962
		},
		{
			"buffer":0,
			"byteLength":576,
			"byteOffset":1728,
			"target":34962
		},
		{
			"buffer":0,
			"byteLength":288,
			"byteOffset":2304,
			"target":34963
		},
		{
			"buffer":0,
			"byteLength":864,
			"byteOffset":2592,
			"target":34962
		},
		{
			"buffer":0,
			"byteLength":864,
			"byteOffset":3456,
			"target":34962
		},
		{
			"buffer":0,
			"byteLength":576,
			"byteOffset":4320,
			"target":34962
		},
		{
			"buffer":0,
			"byteLength":288,
			"byteOffset":4896,
			"target":34963
		},
		{
			"buffer":0,
			"byteLength":864,
			"byteOffset":5184,
			"target":34962
		},
		{
			"buffer":0,
			"byteLength":864,
			"byteOffset":6048,
			"target":34962
		},
		{
			"buffer":0,
			"byteLength":576,
			"byteOffset":6912,
			"target":34962
		}
	],
	"buffers":[
		{
			"byteLength":7488,
			"uri":"logo.bin"
		}
	]
}
